# xmcd CD database file
#
# Track frame offsets:
#	150
#	31484
#	67186
#	87432
#	108074
#	131990
#	178470
#
# Disc length: 2584 seconds
#
# Revision: 0
# Processed by: cddbd v1.5.1PL0 Copyright (c) Steve Scherf et al.
# Submitted via: CDex 1.51
#
DISCID=670a1607
DTITLE=Jaco Pastorius - Invitation Live in Japan
DYEAR=1983
DGENRE=Jazz
TTITLE0=Invitation - Amerika
TTITLE1=Soul intro - The Chicken
TTITLE2=Continuum
TTITLE3=Liberty City
TTITLE4=Sophisticated Lady
TTITLE5=Reza - Giant Steps - Reza
TTITLE6=Fanny Mae - Eleven
EXTD=YEAR: 1983
EXTT0=
EXTT1=
EXTT2=
EXTT3=
EXTT4=
EXTT5=
EXTT6=
PLAYORDER=
